<?xml version="1.0" encoding="utf-8"?>
<!-- Generator: Adobe Illustrator 28.2.0, SVG Export Plug-In . SVG Version: 6.00 Build 0)  -->
<svg version="1.1" id="Layer_1" xmlns="http://www.w3.org/2000/svg" xmlns:xlink="http://www.w3.org/1999/xlink" x="0px" y="0px"
	 viewBox="0 0 4889.76 2381.1" style="enable-background:new 0 0 4889.76 2381.1;" xml:space="preserve">
<style type="text/css">
	.st0{fill:none;stroke:#000000;stroke-miterlimit:10;}
	.st1{fill:#555594;}
	.st2{fill:#F8BDD2;}
	.st3{fill:#FFCA1B;}
	.st4{fill:none;}
	.st5{fill:#5A5796;}
	.st6{font-family:'ArialRoundedMTBold';}
	.st7{font-size:468.1159px;}
	.st8{font-size:276.1237px;}
	.st9{letter-spacing:11;}
</style>
<line class="st0" x1="3252.34" y1="1775.14" x2="3251.9" y2="1775.14"/>
<g>
	<g>
		<path class="st1" d="M2207.73,253.87c5.27,158.27,9.1,331.99,11.48,490.94c0.73,61.35,4.24,122.72,3.85,184.1
			c-0.48,61.43-3.9,122.71-8.84,184c-3.53,40.97-7.63,81.97-14.33,122.6c0,0-4.4-0.04-4.4-0.04
			c-13.93-101.63-18.33-204.46-18.27-306.93c0.59-61.38,5.09-122.68,6.79-184.01c4.93-158.99,11.51-332.35,19.32-490.69
			C2203.33,253.84,2207.73,253.87,2207.73,253.87L2207.73,253.87z"/>
	</g>
	<g>
		<path class="st1" d="M2596.52,1233.83c-6.53-158.22-11.75-331.91-15.4-490.84c-1.22-61.35-5.22-122.68-5.32-184.06
			c-0.01-61.44,2.92-122.73,7.37-184.06c3.21-40.99,6.98-82.03,13.35-122.71c0,0,4.4,0,4.4,0
			c14.74,101.52,19.96,204.31,20.72,306.77c-0.1,61.38-4.11,122.72-5.32,184.06c-3.66,159.02-8.86,332.43-15.4,490.84
			C2600.92,1233.83,2596.52,1233.83,2596.52,1233.83L2596.52,1233.83z"/>
	</g>
	<g>
		<path class="st1" d="M1869.37,908.78c163.06-5.27,342.05-9.1,505.81-11.48c63.21-0.73,126.44-4.24,189.67-3.85
			c63.29,0.48,126.42,3.9,189.58,8.84c42.2,3.53,84.44,7.63,126.32,14.33c0,0-0.03,4.4-0.03,4.4
			c-104.75,13.94-210.66,18.33-316.22,18.27c-63.23-0.59-126.4-5.09-189.59-6.79c-163.8-4.93-342.42-11.51-505.57-19.32
			C1869.33,913.18,1869.37,908.78,1869.37,908.78L1869.37,908.78z"/>
	</g>
	<g>
		<path class="st1" d="M2879.02,519.99c-163.02,6.53-341.97,11.75-505.71,15.4c-63.21,1.22-126.4,5.22-189.64,5.32
			c-63.29,0.01-126.45-2.92-189.64-7.37c-42.23-3.21-84.5-6.98-126.43-13.35c0,0,0-4.4,0-4.4
			c104.64-14.75,210.52-19.96,316.07-20.72c63.24,0.1,126.43,4.11,189.64,5.32c163.84,3.66,342.5,8.86,505.71,15.4
			C2879.02,515.59,2879.02,519.99,2879.02,519.99L2879.02,519.99z"/>
	</g>
	<g>
		<path class="st3" d="M1876.11,441.74c36.65-44.01,75.61-88.19,114.62-130.17c9.86-10.55,18.97-21.87,28.42-32.79
			c9.46-10.94,19.82-20.92,31.26-29.78c23.32-17.93,48.88-34.45,77.03-44.16c0,0,3.16,3.35,3.16,3.35
			c-2.81,7.29-6.35,14.04-10.07,20.78c-14.62,25.44-32.53,48.85-53.59,69.02c-15.86,14.77-34.35,26.47-50.95,40.36
			c-32.83,27.14-68.07,54.93-101.92,80.69c-9.93,7.53-24.75,18.77-34.78,26.04C1879.27,445.08,1876.11,441.74,1876.11,441.74
			L1876.11,441.74z"/>
	</g>
	<g>
		<path class="st3" d="M1879.33,204.83c46.1,33.98,92.5,70.26,136.72,106.72c11.12,9.22,22.95,17.64,34.42,26.43
			c11.48,8.8,22.06,18.55,31.58,29.44c19.28,22.22,37.29,46.76,48.64,74.28c0,0-3.16,3.35-3.16,3.35
			c-7.45-2.38-14.4-5.51-21.34-8.83c-26.26-13.09-50.69-29.59-72.07-49.42c-15.68-14.96-28.46-32.72-43.3-48.47
			c-29.04-31.17-58.86-64.7-86.58-96.97c-8.1-9.47-20.2-23.6-28.05-33.18C1876.18,208.18,1879.33,204.83,1879.33,204.83
			L1879.33,204.83z"/>
	</g>
	<g>
		<path class="st2" d="M2923.07,329.48c-1.29,73.05-58.51,141.18-134,143.19c-106.04,3.29-177.24-103.21-140.5-201.4
			c28.61-79.99,121.78-121.2,198.24-81.17C2897.04,216.41,2924.93,274.48,2923.07,329.48L2923.07,329.48z M2918.47,329.48
			c-1.12-51-38.44-91.55-86.33-103.99c-64.2-18.25-136.44,15.38-153.34,82.03c-17.21,70.59,38.19,139.78,110.27,142.15
			C2857.84,453.14,2920.66,400.74,2918.47,329.48L2918.47,329.48z"/>
	</g>
	<g>
		<path class="st3" d="M2270.85,831.93c36.65-44.01,75.61-88.19,114.61-130.17c9.86-10.55,18.97-21.87,28.42-32.79
			c9.46-10.94,19.82-20.92,31.26-29.78c23.32-17.93,48.88-34.45,77.03-44.16c0,0,3.16,3.35,3.16,3.35
			c-2.81,7.29-6.35,14.04-10.07,20.78c-14.62,25.44-32.53,48.85-53.59,69.02c-15.86,14.77-34.35,26.47-50.95,40.36
			c-32.83,27.14-68.07,54.93-101.92,80.69c-9.93,7.53-24.75,18.77-34.78,26.04C2274.01,835.27,2270.85,831.93,2270.85,831.93
			L2270.85,831.93z"/>
	</g>
	<g>
		<path class="st3" d="M2274.07,595.02c46.1,33.98,92.5,70.27,136.72,106.72c11.12,9.22,22.95,17.64,34.42,26.43
			c11.48,8.8,22.06,18.55,31.58,29.44c19.28,22.22,37.29,46.76,48.64,74.28c0,0-3.16,3.35-3.16,3.35
			c-7.45-2.38-14.4-5.51-21.34-8.83c-26.26-13.09-50.69-29.59-72.07-49.42c-15.68-14.96-28.46-32.72-43.3-48.47
			c-29.04-31.17-58.86-64.7-86.58-96.97c-8.1-9.47-20.2-23.6-28.05-33.18C2270.92,598.37,2274.07,595.02,2274.07,595.02
			L2274.07,595.02z"/>
	</g>
	<g>
		<path class="st3" d="M2657.85,1196.68c36.65-44.01,75.61-88.19,114.62-130.17c9.86-10.55,18.97-21.87,28.42-32.79
			c9.46-10.94,19.82-20.92,31.26-29.78c23.32-17.93,48.88-34.45,77.03-44.16c0,0,3.16,3.35,3.16,3.35
			c-2.81,7.29-6.35,14.04-10.07,20.78c-14.62,25.44-32.53,48.85-53.59,69.02c-15.86,14.77-34.35,26.47-50.95,40.36
			c-32.83,27.14-68.07,54.93-101.92,80.69c-9.93,7.53-24.75,18.77-34.78,26.04C2661,1200.03,2657.85,1196.68,2657.85,1196.68
			L2657.85,1196.68z"/>
	</g>
	<g>
		<path class="st3" d="M2661.07,959.78c46.1,33.98,92.5,70.26,136.72,106.72c11.12,9.22,22.95,17.64,34.42,26.43
			c11.48,8.8,22.06,18.55,31.58,29.44c19.28,22.22,37.28,46.76,48.64,74.28c0,0-3.16,3.35-3.16,3.35
			c-7.45-2.38-14.4-5.51-21.34-8.83c-26.26-13.09-50.69-29.59-72.07-49.42c-15.68-14.96-28.46-32.72-43.3-48.47
			c-29.04-31.17-58.86-64.7-86.58-96.97c-8.1-9.47-20.2-23.6-28.05-33.18C2657.91,963.12,2661.07,959.78,2661.07,959.78
			L2661.07,959.78z"/>
	</g>
	<g>
		<path class="st2" d="M1903.13,1210.88c-57.89-44.58-78.48-131.13-35.11-192.94c60.56-87.1,188.52-80.79,245.46,7.23
			c47.17,70.65,24.73,170.03-52.98,207.56C2009.44,1257.38,1946.18,1245.16,1903.13,1210.88L1903.13,1210.88z M1905.87,1207.19
			c41.62,29.5,96.43,23.71,134.95-7.34c52.92-40.68,68.98-118.72,25.53-172.02c-46.43-55.89-135-52.65-179.87,3.81
			C1842.72,1084.81,1847.35,1166.49,1905.87,1207.19L1905.87,1207.19z"/>
	</g>
</g>
<rect x="1520.19" y="1420.35" class="st4" width="1731.69" height="511.39"/>
<text transform="matrix(1 0 0 1 1520.1858 1761.1422)" class="st5 st6 st7">GAMES</text>
<rect x="1785.4" y="1881.85" class="st4" width="1201.26" height="233.48"/>
<text transform="matrix(1 0 0 1 1836.8953 2082.8728)" class="st5 st6 st8 st9">FOR ED</text>
</svg>
